<svg width="144" height="80" viewBox="0 0 144 80" fill="none" xmlns="http://www.w3.org/2000/svg">
<path d="M6.7285 73.16C5.9605 73.16 5.24583 73.0267 4.5845 72.76C3.93383 72.4827 3.36317 72.104 2.8725 71.624C2.3925 71.1333 2.01917 70.5573 1.7525 69.896C1.48583 69.2347 1.3525 68.5093 1.3525 67.72C1.3525 66.9307 1.48583 66.2053 1.7525 65.544C2.01917 64.8827 2.3925 64.312 2.8725 63.832C3.36317 63.3413 3.93383 62.9627 4.5845 62.696C5.24583 62.4187 5.9605 62.28 6.7285 62.28C7.4965 62.28 8.20583 62.4187 8.8565 62.696C9.51783 62.9627 10.0885 63.3413 10.5685 63.832C11.0592 64.312 11.4378 64.8827 11.7045 65.544C11.9818 66.2053 12.1205 66.9307 12.1205 67.72C12.1205 68.5093 11.9818 69.2347 11.7045 69.896C11.4378 70.5573 11.0592 71.1333 10.5685 71.624C10.0885 72.104 9.51783 72.4827 8.8565 72.76C8.20583 73.0267 7.4965 73.16 6.7285 73.16ZM7.0485 72.36C7.69917 72.36 8.26983 72.1893 8.7605 71.848C9.25117 71.5067 9.63517 71.0267 9.9125 70.408C10.1898 69.7893 10.3285 69.0587 10.3285 68.216C10.3285 67.1813 10.1578 66.28 9.8165 65.512C9.47517 64.7333 9.01117 64.1307 8.4245 63.704C7.83783 63.2773 7.18717 63.064 6.4725 63.064C5.82183 63.064 5.24583 63.2347 4.7445 63.576C4.24317 63.9067 3.8485 64.3813 3.5605 65C3.28317 65.6187 3.1445 66.3493 3.1445 67.192C3.1445 68.2267 3.31517 69.1333 3.6565 69.912C4.0085 70.6907 4.47783 71.2933 5.0645 71.72C5.66183 72.1467 6.32317 72.36 7.0485 72.36ZM19.6597 73.08L16.6837 63.288L15.4677 62.696V62.44H19.7717V62.696L18.4117 63.288L20.3637 70.04H20.4597L23.2277 62.36H23.8997L26.7157 70.04H26.8118L28.7478 63.304L27.3878 62.696V62.44H30.9398V62.696L29.8678 63.272L26.8597 73.08H26.2038L23.3237 65.416H23.2118L20.2997 73.08H19.6597ZM46.3816 73.16C45.6136 73.16 44.899 73.0267 44.2376 72.76C43.587 72.4827 43.0163 72.104 42.5256 71.624C42.0456 71.1333 41.6723 70.5573 41.4056 69.896C41.139 69.2347 41.0056 68.5093 41.0056 67.72C41.0056 66.9307 41.139 66.2053 41.4056 65.544C41.6723 64.8827 42.0456 64.312 42.5256 63.832C43.0163 63.3413 43.587 62.9627 44.2376 62.696C44.899 62.4187 45.6136 62.28 46.3816 62.28C47.1496 62.28 47.859 62.4187 48.5096 62.696C49.171 62.9627 49.7416 63.3413 50.2216 63.832C50.7123 64.312 51.091 64.8827 51.3576 65.544C51.635 66.2053 51.7736 66.9307 51.7736 67.72C51.7736 68.5093 51.635 69.2347 51.3576 69.896C51.091 70.5573 50.7123 71.1333 50.2216 71.624C49.7416 72.104 49.171 72.4827 48.5096 72.76C47.859 73.0267 47.1496 73.16 46.3816 73.16ZM46.7016 72.36C47.3523 72.36 47.923 72.1893 48.4136 71.848C48.9043 71.5067 49.2883 71.0267 49.5656 70.408C49.843 69.7893 49.9816 69.0587 49.9816 68.216C49.9816 67.1813 49.811 66.28 49.4696 65.512C49.1283 64.7333 48.6643 64.1307 48.0776 63.704C47.491 63.2773 46.8403 63.064 46.1256 63.064C45.475 63.064 44.899 63.2347 44.3976 63.576C43.8963 63.9067 43.5016 64.3813 43.2136 65C42.9363 65.6187 42.7976 66.3493 42.7976 67.192C42.7976 68.2267 42.9683 69.1333 43.3096 69.912C43.6616 70.6907 44.131 71.2933 44.7176 71.72C45.315 72.1467 45.9763 72.36 46.7016 72.36ZM56.1694 73V72.744L57.4654 72.104V63.336L56.1694 62.696V62.44H60.6174C61.7374 62.44 62.6174 62.6747 63.2574 63.144C63.908 63.6027 64.2334 64.2373 64.2334 65.048C64.2334 65.6453 64.0307 66.1733 63.6254 66.632C63.22 67.0907 62.6867 67.4427 62.0254 67.688L65.0494 72.152L66.1214 72.744V73H63.5454L60.4734 68.136H59.1454V72.088L60.3454 72.744V73H56.1694ZM60.0894 63.32H59.1454V67.288H60.1854C60.8467 67.288 61.3907 67.1013 61.8174 66.728C62.2547 66.344 62.4734 65.8587 62.4734 65.272C62.4734 64.664 62.26 64.1893 61.8334 63.848C61.4174 63.496 60.836 63.32 60.0894 63.32ZM74.8379 73.16C74.0699 73.16 73.3552 73.032 72.6939 72.776C72.0432 72.52 71.4779 72.1627 70.9979 71.704C70.5179 71.2347 70.1392 70.6853 69.8619 70.056C69.5952 69.4267 69.4619 68.7387 69.4619 67.992C69.4619 67.1707 69.6112 66.4133 69.9099 65.72C70.2192 65.0267 70.6405 64.424 71.1739 63.912C71.7072 63.3893 72.3205 62.9893 73.0139 62.712C73.7072 62.424 74.4485 62.28 75.2379 62.28C75.8032 62.28 76.2832 62.312 76.6779 62.376C77.0725 62.44 77.4245 62.5307 77.7339 62.648C78.0539 62.7653 78.3632 62.8987 78.6619 63.048L78.7579 65.736H78.5019L77.3499 63.816C76.9339 63.5387 76.5765 63.3467 76.2779 63.24C75.9792 63.1333 75.6325 63.08 75.2379 63.08C74.4485 63.08 73.7445 63.2613 73.1259 63.624C72.5072 63.9867 72.0219 64.488 71.6699 65.128C71.3179 65.768 71.1419 66.4987 71.1419 67.32C71.1419 68.3547 71.3285 69.24 71.7019 69.976C72.0752 70.712 72.5712 71.2773 73.1899 71.672C73.8192 72.056 74.5232 72.248 75.3019 72.248C75.6112 72.248 75.9152 72.232 76.2139 72.2C76.5232 72.1573 76.8325 72.0827 77.1419 71.976V69.24L75.7179 68.584V68.328H79.9419V68.584L78.8219 69.288V71.816C78.5019 72.0933 78.1179 72.3333 77.6699 72.536C77.2219 72.728 76.7525 72.8827 76.2619 73C75.7712 73.1067 75.2965 73.16 74.8379 73.16ZM83.2394 73V72.744L84.2474 72.216L88.3594 62.36H89.2394L93.3034 72.168L94.3754 72.744V73H90.1514V72.744L91.5594 72.184L90.3754 69.304H86.5194L85.3514 72.2L86.6954 72.744V73H83.2394ZM86.8874 68.424H90.0234L88.4554 64.568L86.8874 68.424ZM98.1491 73V72.744L99.4451 72.104V63.368L98.1651 62.696V62.44H100.677L106.805 69.976V63.32L105.157 62.696V62.44H109.205V62.696L107.925 63.32V73.08H107.237L100.565 64.888V72.12L102.213 72.744V73H98.1491ZM113.38 73V72.744L114.692 72.104V63.336L113.38 62.696V62.44H117.652V62.696L116.356 63.336V72.104L117.652 72.744V73H113.38ZM127.469 73.16C126.37 73.16 125.421 72.936 124.621 72.488C123.821 72.04 123.202 71.4267 122.765 70.648C122.327 69.8693 122.109 68.984 122.109 67.992C122.109 67.224 122.258 66.4987 122.557 65.816C122.855 65.1333 123.261 64.5253 123.773 63.992C124.295 63.4587 124.893 63.0427 125.565 62.744C126.237 62.4347 126.951 62.28 127.709 62.28C128.253 62.28 128.711 62.3173 129.085 62.392C129.458 62.456 129.789 62.5467 130.077 62.664C130.375 62.7707 130.674 62.8987 130.973 63.048L131.069 65.896H130.781L129.677 63.816C129.314 63.56 128.983 63.3733 128.685 63.256C128.397 63.1387 128.071 63.08 127.709 63.08C126.973 63.08 126.311 63.272 125.725 63.656C125.138 64.04 124.674 64.5733 124.333 65.256C124.002 65.928 123.837 66.7067 123.837 67.592C123.837 68.584 123.997 69.4373 124.317 70.152C124.647 70.856 125.09 71.3947 125.645 71.768C126.199 72.1413 126.813 72.328 127.485 72.328C128.039 72.328 128.503 72.2533 128.877 72.104C129.261 71.9547 129.602 71.7787 129.901 71.576L130.973 69.784H131.245L131.053 72.36C130.583 72.5947 130.082 72.7867 129.549 72.936C129.015 73.0853 128.322 73.16 127.469 73.16ZM139.287 73.16C138.615 73.16 138.039 73.096 137.559 72.968C137.09 72.84 136.605 72.6533 136.103 72.408L135.943 69.768H136.199L137.047 71.512C137.421 71.8213 137.789 72.0453 138.151 72.184C138.514 72.3227 138.877 72.392 139.239 72.392C139.858 72.392 140.343 72.232 140.695 71.912C141.058 71.592 141.239 71.1547 141.239 70.6C141.239 70.1627 141.138 69.816 140.935 69.56C140.743 69.2933 140.45 69.0587 140.055 68.856C139.671 68.6427 139.197 68.3973 138.631 68.12C137.874 67.7573 137.293 67.3787 136.887 66.984C136.482 66.5787 136.279 66.0133 136.279 65.288C136.279 64.904 136.37 64.536 136.551 64.184C136.743 63.8213 136.999 63.5013 137.319 63.224C137.639 62.936 137.997 62.7067 138.391 62.536C138.786 62.3653 139.197 62.28 139.623 62.28C140.125 62.28 140.594 62.3387 141.031 62.456C141.469 62.5733 141.901 62.744 142.327 62.968L142.487 65.528H142.231L141.399 63.816C141.058 63.5493 140.749 63.3573 140.471 63.24C140.194 63.1227 139.879 63.064 139.527 63.064C139.069 63.064 138.685 63.2187 138.375 63.528C138.077 63.8373 137.927 64.2267 137.927 64.696C137.927 65.2187 138.087 65.6293 138.407 65.928C138.738 66.2267 139.266 66.5467 139.991 66.888C140.631 67.1973 141.159 67.496 141.575 67.784C142.002 68.0613 142.317 68.376 142.519 68.728C142.722 69.08 142.823 69.528 142.823 70.072C142.823 70.5733 142.717 71.016 142.503 71.4C142.29 71.784 142.007 72.1093 141.655 72.376C141.303 72.632 140.919 72.8293 140.503 72.968C140.098 73.096 139.693 73.16 139.287 73.16Z" fill="#193A43"/>
<path d="M63.7109 36.3906C69.0195 29.3945 77.9844 17.9688 77.4922 8.72266C77.1406 4.71484 74.3984 1.30469 70.0391 1.16406C58.9648 1.16406 44.5859 15.0508 44.5859 25.8789C44.5859 26.8633 44.7617 28.1992 44.9727 29.2188C45.1133 29.8516 44.9727 30.3438 44.6914 30.8711C43.5312 33.1211 41.5273 37.5859 41.5273 41.3828C41.5625 44.3359 42.793 46.6914 46.5898 46.7969C52.5664 46.8672 57.1367 42.0508 61.4961 38.3945C61.9883 38.0078 62.5508 37.6562 63.1484 37.6562C66.875 37.5859 79.4258 37.0234 86.4219 29.8516C86.668 29.6055 86.9141 29.3945 86.9141 28.9727C86.9141 28.6562 86.8086 28.2695 86.4219 28.2695C86.2461 28.2695 86.1406 28.375 86 28.5156C81.0781 34.4219 71.0234 36.3906 63.7109 36.3906ZM74.3633 7.70312C74.7148 7.28125 74.5039 6.78906 74.3281 6.36719C73.9062 5.3125 72.7109 4.08203 70.5664 4.08203C62.0234 4.08203 50.1406 21.3789 46.3086 27.7773C46.2734 27.25 46.168 26.4062 46.2031 25.8789C46.5547 16.457 58.6836 2.81641 69.8281 2.81641C73.6953 2.81641 75.8398 5.45312 75.8398 8.72266C75.8398 17.1602 66.207 30.2383 61.1445 35.8633C60.793 36.2148 60.5117 36.4961 59.9844 36.4961C59.7031 36.4961 59.4219 36.5312 59.1406 36.5312C55.0977 36.5312 50.2812 34.8789 47.5391 31.6445C46.7656 30.7305 46.6602 30.5195 47.2578 29.4297C50.3164 23.875 63.4648 5.45312 70.8477 5.45312C72.3594 5.45312 73.3438 6.26172 73.9062 7.63281C73.9766 7.73828 74.082 7.77344 74.1875 7.77344C74.2578 7.77344 74.3281 7.77344 74.3633 7.70312ZM59.0703 37.7969C56.1172 40.6445 50.8086 45.3906 46.5195 45.3906C44.2344 45.3906 43.4258 43.8086 43.3906 41.7344C43.3203 37.6914 45.3242 33.4375 46.0625 32.0312C49.0156 35.8281 53.6211 37.832 58.1562 37.832C58.4727 37.832 58.7539 37.7969 59.0703 37.7969ZM85.1914 33.9297C87.3711 33.9297 90.2891 30.625 90.8164 30.168C90.5352 30.8711 90.3242 31.5742 90.3242 32.3125C90.3242 33.4375 90.8516 34.457 92.5039 34.457C95.3516 34.457 98.5156 31.8906 102.031 28.0938C103.965 30.9414 108.887 31.9609 113.914 31.9609C116.586 31.9609 122 31.0469 124.039 29.0078C124.25 28.7617 124.109 28.4805 123.863 28.4805C123.828 28.4805 123.758 28.4805 123.723 28.5156C120.559 30.0977 116.902 30.9414 113.387 30.9414C108.922 30.9414 102.84 29.5352 103.227 26.3359C103.262 25.9141 103.016 25.7031 102.734 25.7031C102.559 25.7031 102.348 25.8438 102.277 26.0547C100.59 28.4805 95.668 33.5078 92.8555 33.5078C91.9766 33.5078 91.7305 33.0156 91.7305 32.3477C91.7305 30.9766 92.7852 28.8672 92.8555 28.2695C92.8906 27.9883 92.6445 27.7773 92.4336 27.7773C92.3633 27.7773 92.293 27.8125 92.2227 27.8477C88.1445 31.5039 86.8789 32.7344 85.8594 32.7344C85.6484 32.7344 85.5781 32.5938 85.5781 32.4531C85.5781 31.8203 86.9844 29.3594 86.9844 28.5156C86.9844 28.2344 86.9141 28.0234 86.7734 27.918C86.7031 27.8477 86.6328 27.8125 86.5273 27.8125C86.4922 27.8125 86.4219 27.8477 86.3867 27.8477C85.7891 28.0234 84.2773 31.293 84.2773 32.8047C84.2773 33.4727 84.6289 33.9297 85.1914 33.9297Z" fill="#193A43"/>
<path d="M63.7109 36.3906L63.3126 36.0884L62.7039 36.8906H63.7109V36.3906ZM77.4922 8.72266L77.9915 8.69608L77.991 8.68751L77.9903 8.67896L77.4922 8.72266ZM70.0391 1.16406L70.0552 0.664322L70.0471 0.664062H70.0391V1.16406ZM44.9727 29.2188L44.483 29.3201L44.4846 29.3272L44.9727 29.2188ZM44.6914 30.8711L44.2502 30.6358L44.247 30.6419L44.6914 30.8711ZM41.5273 41.3828H41.0273L41.0274 41.3888L41.5273 41.3828ZM46.5898 46.7969L46.576 47.2967L46.584 47.2968L46.5898 46.7969ZM61.4961 38.3945L61.1872 38.0014L61.1809 38.0063L61.1748 38.0114L61.4961 38.3945ZM63.1484 37.6562V38.1563L63.1579 38.1562L63.1484 37.6562ZM86.4219 29.8516L86.0683 29.498L86.064 29.5024L86.4219 29.8516ZM86 28.5156L85.6464 28.1621L85.6304 28.1781L85.6159 28.1955L86 28.5156ZM74.3633 7.70312L73.9792 7.38303L73.942 7.42761L73.9161 7.47952L74.3633 7.70312ZM74.3281 6.36719L73.8638 6.5529L73.8666 6.55949L74.3281 6.36719ZM46.3086 27.7773L45.8097 27.8106L45.9161 29.4059L46.7375 28.0342L46.3086 27.7773ZM46.2031 25.8789L46.702 25.9122L46.7025 25.9049L46.7028 25.8976L46.2031 25.8789ZM61.1445 35.8633L61.4981 36.2168L61.5074 36.2075L61.5162 36.1978L61.1445 35.8633ZM47.5391 31.6445L47.1574 31.9675L47.1577 31.9679L47.5391 31.6445ZM47.2578 29.4297L46.8198 29.1885L46.8194 29.1893L47.2578 29.4297ZM73.9062 7.63281L73.4437 7.82259L73.4626 7.8687L73.4902 7.91016L73.9062 7.63281ZM59.0703 37.7969L59.4174 38.1568L60.3092 37.2969H59.0703V37.7969ZM43.3906 41.7344L43.8906 41.7259L43.8905 41.7257L43.3906 41.7344ZM46.0625 32.0312L46.4572 31.7243L45.9806 31.1116L45.6198 31.7988L46.0625 32.0312ZM64.1092 36.6929C66.7579 33.2023 70.3472 28.5705 73.209 23.6518C76.0629 18.7469 78.2457 13.4716 77.9915 8.69608L76.9929 8.74923C77.2309 13.2198 75.1773 18.2805 72.3447 23.1489C69.52 28.0037 65.9726 32.5829 63.3126 36.0884L64.1092 36.6929ZM77.9903 8.67896C77.6218 4.47805 74.7225 0.814881 70.0552 0.664322L70.0229 1.6638C74.0744 1.79449 76.6595 4.95164 76.9941 8.76635L77.9903 8.67896ZM70.0391 0.664062C64.3181 0.664062 57.8362 4.23255 52.8117 9.10188C47.7894 13.9691 44.0859 20.2694 44.0859 25.8789H45.0859C45.0859 20.6603 48.5719 14.6032 53.5076 9.81999C58.4411 5.03893 64.6858 1.66406 70.0391 1.66406V0.664062ZM44.0859 25.8789C44.0859 26.9082 44.2678 28.2798 44.483 29.3201L45.4623 29.1174C45.2556 28.1186 45.0859 26.8184 45.0859 25.8789H44.0859ZM44.4846 29.3272C44.591 29.8061 44.4965 30.1741 44.2502 30.6358L45.1326 31.1064C45.4489 30.5134 45.6356 29.897 45.4607 29.1103L44.4846 29.3272ZM44.247 30.6419C43.0856 32.8943 41.0273 37.4542 41.0273 41.3828H42.0273C42.0273 37.7177 43.9769 33.3479 45.1358 31.1002L44.247 30.6419ZM41.0274 41.3888C41.0456 42.922 41.3734 44.3785 42.2594 45.4724C43.1596 46.5839 44.57 47.241 46.576 47.2967L46.6037 46.2971C44.8128 46.2473 43.7095 45.674 43.0365 44.843C42.3493 43.9945 42.0442 42.7968 42.0273 41.3769L41.0274 41.3888ZM46.584 47.2968C49.7149 47.3337 52.4524 46.0885 54.9302 44.4069C57.3926 42.7357 59.6706 40.5782 61.8174 38.7776L61.1748 38.0114C58.9622 39.8671 56.7754 41.946 54.3686 43.5795C51.9773 45.2025 49.4413 46.3304 46.5957 46.2969L46.584 47.2968ZM61.805 38.7877C62.2902 38.4064 62.7345 38.1562 63.1484 38.1562V37.1562C62.367 37.1562 61.6863 37.6092 61.1872 38.0014L61.805 38.7877ZM63.1579 38.1562C65.0351 38.1207 69.1447 37.9615 73.6728 36.9039C78.1932 35.8481 83.1864 33.8844 86.7798 30.2007L86.064 29.5024C82.6613 32.9906 77.881 34.8941 73.4454 35.9301C69.0174 36.9643 64.9884 37.1214 63.139 37.1563L63.1579 38.1562ZM86.7754 30.2051C86.9873 29.9932 87.4141 29.6367 87.4141 28.9727H86.4141C86.4141 29.1523 86.3486 29.2177 86.0683 29.498L86.7754 30.2051ZM87.4141 28.9727C87.4141 28.7732 87.383 28.502 87.2514 28.262C87.1025 27.9905 86.8244 27.7695 86.4219 27.7695V28.7695C86.431 28.7695 86.4149 28.7705 86.3921 28.7558C86.3722 28.7431 86.3688 28.7323 86.3746 28.7429C86.3812 28.755 86.3922 28.7815 86.401 28.8261C86.4096 28.8696 86.4141 28.9201 86.4141 28.9727H87.4141ZM86.4219 27.7695C86.0066 27.7695 85.7584 28.0501 85.6464 28.1621L86.3536 28.8692C86.3905 28.8322 86.4154 28.8075 86.4381 28.7867C86.46 28.7667 86.4711 28.7586 86.4751 28.7559C86.4778 28.754 86.4714 28.7587 86.4576 28.7633C86.4428 28.7681 86.4297 28.7695 86.4219 28.7695V27.7695ZM85.6159 28.1955C83.2413 31.045 79.5999 32.9742 75.6064 34.1896C71.6188 35.4032 67.3273 35.8906 63.7109 35.8906V36.8906C67.4071 36.8906 71.7992 36.3936 75.8975 35.1463C79.9899 33.9008 83.8368 31.8925 86.3841 28.8357L85.6159 28.1955ZM74.7474 8.02322C75.0327 7.68091 75.0839 7.3019 75.039 6.96845C74.9978 6.6624 74.8711 6.37044 74.7897 6.17488L73.8666 6.55949C73.9609 6.78581 74.0276 6.95088 74.0479 7.10186C74.0646 7.22545 74.0455 7.30347 73.9792 7.38303L74.7474 8.02322ZM74.7924 6.18149C74.3012 4.95349 72.9326 3.58203 70.5664 3.58203V4.58203C72.4893 4.58203 73.5113 5.67151 73.8639 6.55288L74.7924 6.18149ZM70.5664 3.58203C68.2731 3.58203 65.823 4.73633 63.4175 6.4798C61.0008 8.23141 58.5673 10.6233 56.2958 13.1996C51.7521 18.3533 47.8059 24.3042 45.8796 27.5204L46.7375 28.0342C48.6433 24.8521 52.5545 18.9553 57.0459 13.8609C59.2921 11.3132 61.6706 8.98099 64.0044 7.28949C66.3494 5.58984 68.5882 4.58203 70.5664 4.58203V3.58203ZM46.8075 27.7441C46.7903 27.4855 46.7523 27.1054 46.728 26.7898C46.7017 26.4477 46.6871 26.1366 46.702 25.9122L45.7042 25.8456C45.684 26.1486 45.7045 26.523 45.731 26.8665C45.7594 27.2364 45.7918 27.5418 45.8097 27.8106L46.8075 27.7441ZM46.7028 25.8976C46.8721 21.3597 49.9016 15.7056 54.3264 11.1633C58.7488 6.62352 64.4461 3.31641 69.8281 3.31641V2.31641C64.0656 2.31641 58.1262 5.8296 53.6101 10.4656C49.0964 15.0991 45.8857 20.9762 45.7035 25.8603L46.7028 25.8976ZM69.8281 3.31641C71.6425 3.31641 73.0087 3.93161 73.9225 4.88873C74.8404 5.8501 75.3398 7.19655 75.3398 8.72266H76.3398C76.3398 6.97923 75.767 5.37256 74.6458 4.19818C73.5206 3.01956 71.8809 2.31641 69.8281 2.31641V3.31641ZM75.3398 8.72266C75.3398 12.7925 72.9999 18.068 69.9628 23.0889C66.9401 28.0859 63.2859 32.7366 60.7729 35.5288L61.5162 36.1978C64.0657 33.365 67.7591 28.6641 70.8184 23.6064C73.8634 18.5726 76.3398 13.0903 76.3398 8.72266H75.3398ZM60.791 35.5097C60.4274 35.8733 60.2811 35.9961 59.9844 35.9961V36.9961C60.7423 36.9961 61.1586 36.5563 61.4981 36.2168L60.791 35.5097ZM59.9844 35.9961C59.8255 35.9961 59.6693 36.006 59.5313 36.0146C59.3881 36.0236 59.263 36.0312 59.1406 36.0312V37.0312C59.2995 37.0312 59.4557 37.0213 59.5937 37.0127C59.7369 37.0037 59.862 36.9961 59.9844 36.9961V35.9961ZM59.1406 36.0312C55.202 36.0312 50.5432 34.4147 47.9204 31.3212L47.1577 31.9679C50.0193 35.3432 54.9933 37.0312 59.1406 37.0312V36.0312ZM47.9208 31.3216C47.7252 31.0905 47.5925 30.9274 47.5019 30.7904C47.4142 30.6578 47.3869 30.5796 47.378 30.5243C47.36 30.4111 47.3898 30.2288 47.6962 29.6701L46.8194 29.1893C46.5281 29.7204 46.3119 30.1885 46.3905 30.6817C46.43 30.9296 46.5367 31.1437 46.6677 31.3419C46.7957 31.5355 46.9662 31.7416 47.1574 31.9675L47.9208 31.3216ZM47.6958 29.6709C49.2056 26.9288 53.2361 20.9633 57.809 15.6858C60.0948 13.0479 62.5022 10.5982 64.7853 8.81215C67.0908 7.00859 69.1813 5.95312 70.8477 5.95312V4.95312C68.8226 4.95312 66.501 6.20039 64.1692 8.02452C61.8149 9.86619 59.3598 12.3691 57.0533 15.031C52.4416 20.3531 48.3686 26.3758 46.8198 29.1885L47.6958 29.6709ZM70.8477 5.95312C71.5093 5.95312 72.0261 6.12813 72.4357 6.4309C72.8499 6.73702 73.1877 7.19861 73.4437 7.82259L74.3688 7.44303C74.0623 6.69592 73.6267 6.06766 73.0301 5.62672C72.429 5.18242 71.6978 4.95312 70.8477 4.95312V5.95312ZM73.4902 7.91016C73.6788 8.19299 73.9668 8.27344 74.1875 8.27344V7.27344C74.1888 7.27344 74.2098 7.2735 74.2406 7.28749C74.2756 7.30342 74.3047 7.32916 74.3223 7.35546L73.4902 7.91016ZM74.1875 8.27344C74.2054 8.27344 74.3151 8.27708 74.4259 8.24541C74.5707 8.20404 74.7212 8.10532 74.8105 7.92673L73.9161 7.47952C73.9384 7.43495 73.9734 7.38863 74.0227 7.35002C74.0707 7.3125 74.1178 7.29344 74.1512 7.28389C74.1825 7.27495 74.2045 7.27357 74.2075 7.27338C74.2093 7.27326 74.2081 7.27344 74.1875 7.27344V8.27344ZM58.7232 37.437C57.2518 38.8559 55.2098 40.7315 53.0117 42.2503C50.7955 43.7815 48.5035 44.8906 46.5195 44.8906V45.8906C48.8246 45.8906 51.3315 44.6267 53.5801 43.073C55.8468 41.5068 57.9357 39.5855 59.4174 38.1568L58.7232 37.437ZM46.5195 44.8906C45.5059 44.8906 44.893 44.548 44.511 44.0399C44.1091 43.5053 43.9073 42.7136 43.8906 41.7259L42.8907 41.7428C42.9091 42.8294 43.1291 43.8658 43.7117 44.6408C44.3141 45.4422 45.248 45.8906 46.5195 45.8906V44.8906ZM43.8905 41.7257C43.8226 37.8177 45.772 33.6602 46.5052 32.2637L45.6198 31.7988C44.8764 33.2148 42.818 37.5651 42.8907 41.7431L43.8905 41.7257ZM45.6678 32.3382C48.7236 36.2671 53.4802 38.332 58.1562 38.332V37.332C53.762 37.332 49.3077 35.3892 46.4572 31.7243L45.6678 32.3382ZM58.1562 38.332C58.3314 38.332 58.4951 38.3223 58.6426 38.3136C58.7939 38.3047 58.929 38.2969 59.0703 38.2969V37.2969C58.8952 37.2969 58.7315 37.3066 58.5839 37.3153C58.4327 37.3242 58.2975 37.332 58.1562 37.332V38.332ZM90.8164 30.168L91.2806 30.3537L90.4889 29.7901L90.8164 30.168ZM102.031 28.0938L102.445 27.8129L102.092 27.2926L101.664 27.754L102.031 28.0938ZM124.039 29.0078L124.393 29.3614L124.406 29.3478L124.419 29.3332L124.039 29.0078ZM123.723 28.5156L123.946 28.9628L124.019 28.9266L124.076 28.8692L123.723 28.5156ZM103.227 26.3359L103.723 26.3959L103.724 26.3867L103.725 26.3775L103.227 26.3359ZM102.277 26.0547L102.688 26.3402L102.729 26.2811L102.752 26.2128L102.277 26.0547ZM92.8555 28.2695L92.3593 28.2075L92.3589 28.2111L92.8555 28.2695ZM92.2227 27.8477L91.9991 27.4004L91.9389 27.4305L91.8889 27.4754L92.2227 27.8477ZM86.7734 27.918L86.4199 28.2715L86.445 28.2966L86.4734 28.318L86.7734 27.918ZM86.3867 27.8477V27.3477H86.3147L86.2456 27.368L86.3867 27.8477ZM85.1914 34.4297C85.8546 34.4297 86.531 34.1814 87.1529 33.8464C87.7809 33.508 88.3946 33.0585 88.9422 32.6055C89.4915 32.1512 89.985 31.6844 90.3715 31.3057C90.7766 30.9087 91.0268 30.6473 91.1439 30.5458L90.4889 29.7901C90.3423 29.9172 90.03 30.2402 89.6716 30.5914C89.2946 30.9609 88.8235 31.406 88.3048 31.8349C87.7846 32.2653 87.2272 32.6704 86.6786 32.966C86.1237 33.2649 85.6181 33.4297 85.1914 33.4297V34.4297ZM90.3522 29.9823C90.0621 30.7074 89.8242 31.4802 89.8242 32.3125H90.8242C90.8242 31.6683 91.0082 31.0348 91.2806 30.3537L90.3522 29.9823ZM89.8242 32.3125C89.8242 32.9435 89.9711 33.6134 90.4145 34.1317C90.8703 34.6644 91.57 34.957 92.5039 34.957V33.957C91.7854 33.957 91.3953 33.7399 91.1744 33.4816C90.9411 33.2089 90.8242 32.8065 90.8242 32.3125H89.8242ZM92.5039 34.957C94.0758 34.957 95.6806 34.2509 97.3048 33.1081C98.9337 31.962 100.631 30.3414 102.398 28.4335L101.664 27.754C99.9154 29.6429 98.2733 31.204 96.7294 32.2903C95.1807 33.3799 93.7797 33.957 92.5039 33.957V34.957ZM101.618 28.3746C102.678 29.9365 104.521 30.9496 106.673 31.5753C108.834 32.2037 111.372 32.4609 113.914 32.4609V31.4609C111.429 31.4609 108.993 31.2084 106.952 30.6151C104.903 30.0191 103.318 29.0987 102.445 27.8129L101.618 28.3746ZM113.914 32.4609C115.295 32.4609 117.357 32.2265 119.335 31.7342C121.29 31.2476 123.27 30.4837 124.393 29.3614L123.686 28.6543C122.769 29.5709 121.022 30.2837 119.093 30.7638C117.186 31.2384 115.205 31.4609 113.914 31.4609V32.4609ZM124.419 29.3332C124.625 29.0921 124.705 28.7684 124.588 28.4697C124.473 28.1751 124.19 27.9805 123.863 27.9805V28.9805C123.782 28.9805 123.693 28.9265 123.657 28.8341C123.619 28.7374 123.664 28.6775 123.659 28.6824L124.419 29.3332ZM123.863 27.9805C123.849 27.9805 123.783 27.9796 123.711 27.9917C123.65 28.0018 123.498 28.0337 123.369 28.1621L124.076 28.8692C124.026 28.919 123.976 28.945 123.944 28.9581C123.912 28.9712 123.887 28.9761 123.875 28.9781C123.855 28.9814 123.843 28.9805 123.863 28.9805V27.9805ZM123.499 28.0684C120.406 29.615 116.826 30.4414 113.387 30.4414V31.4414C116.978 31.4414 120.711 30.5803 123.946 28.9628L123.499 28.0684ZM113.387 30.4414C111.195 30.4414 108.62 30.0947 106.661 29.3695C105.679 29.0061 104.89 28.5615 104.375 28.0505C103.873 27.5518 103.649 27.0099 103.723 26.3959L102.73 26.2759C102.611 27.2615 103.002 28.0951 103.671 28.7599C104.327 29.4124 105.265 29.9192 106.314 30.3073C108.415 31.085 111.114 31.4414 113.387 31.4414V30.4414ZM103.725 26.3775C103.751 26.0621 103.675 25.7605 103.475 25.5321C103.277 25.3051 103.001 25.2031 102.734 25.2031V26.2031C102.742 26.2031 102.743 26.2046 102.739 26.2029C102.735 26.2009 102.728 26.1966 102.723 26.1906C102.717 26.1844 102.72 26.1836 102.723 26.196C102.727 26.2093 102.733 26.2403 102.728 26.2944L103.725 26.3775ZM102.734 25.2031C102.335 25.2031 101.939 25.4897 101.803 25.8966L102.752 26.2128C102.751 26.2155 102.75 26.2151 102.752 26.2124C102.755 26.2095 102.758 26.2057 102.763 26.2023C102.768 26.1988 102.77 26.198 102.769 26.1986C102.768 26.199 102.764 26.2 102.759 26.201C102.754 26.202 102.746 26.2031 102.734 26.2031V25.2031ZM101.867 25.7692C101.05 26.9433 99.4268 28.7765 97.6601 30.3137C96.778 31.0812 95.8731 31.7635 95.0271 32.2512C94.169 32.7459 93.4267 33.0078 92.8555 33.0078V34.0078C93.6905 34.0078 94.6181 33.6413 95.5266 33.1176C96.4472 32.5868 97.4056 31.8607 98.3165 31.0681C100.136 29.4853 101.817 27.5919 102.688 26.3402L101.867 25.7692ZM92.8555 33.0078C92.5087 33.0078 92.3938 32.9139 92.3482 32.8589C92.2866 32.7848 92.2305 32.6361 92.2305 32.3477H91.2305C91.2305 32.7271 91.2974 33.1586 91.5786 33.4975C91.8758 33.8557 92.3234 34.0078 92.8555 34.0078V33.0078ZM92.2305 32.3477C92.2305 31.7585 92.4638 30.9636 92.7382 30.1847C92.8769 29.791 93.0041 29.4598 93.1207 29.1349C93.224 28.8468 93.3265 28.5454 93.352 28.328L92.3589 28.2111C92.3493 28.2925 92.2936 28.4789 92.1794 28.7972C92.0784 29.0788 91.9288 29.4727 91.795 29.8524C91.5245 30.6204 91.2305 31.5657 91.2305 32.3477H92.2305ZM93.3516 28.3315C93.3903 28.0218 93.2709 27.7542 93.0993 27.5736C92.936 27.4017 92.6959 27.2773 92.4336 27.2773V28.2773C92.4044 28.2773 92.3879 28.2705 92.3833 28.2684C92.3781 28.266 92.3759 28.264 92.3743 28.2623C92.3724 28.2603 92.3677 28.2547 92.3638 28.2438C92.3593 28.2315 92.358 28.2181 92.3593 28.2075L93.3516 28.3315ZM92.4336 27.2773C92.2223 27.2773 92.0403 27.3798 91.9991 27.4004L92.4463 28.2949C92.4553 28.2904 92.4627 28.2867 92.4698 28.2831C92.4768 28.2797 92.4826 28.2769 92.4876 28.2746C92.498 28.2697 92.5027 28.2679 92.5037 28.2675C92.5046 28.2671 92.4988 28.2694 92.4877 28.2718C92.4763 28.2743 92.4577 28.2773 92.4336 28.2773V27.2773ZM91.8889 27.4754C89.8401 29.3122 88.5207 30.5187 87.5813 31.272C86.6171 32.0451 86.1728 32.2344 85.8594 32.2344V33.2344C86.5655 33.2344 87.2637 32.8084 88.2068 32.0522C89.1746 31.2762 90.5271 30.0394 92.5564 28.2199L91.8889 27.4754ZM85.8594 32.2344C85.8621 32.2344 85.8864 32.2349 85.9217 32.2499C85.9588 32.2657 85.9949 32.2918 86.0238 32.3264C86.0781 32.3916 86.0781 32.4492 86.0781 32.4531H85.0781C85.0781 32.5977 85.1133 32.7959 85.2555 32.9666C85.4111 33.1533 85.6337 33.2344 85.8594 33.2344V32.2344ZM86.0781 32.4531C86.0781 32.4565 86.078 32.4438 86.0847 32.4093C86.0911 32.3765 86.1017 32.3335 86.1179 32.2792C86.1503 32.1699 86.1992 32.0339 86.2627 31.8737C86.3902 31.5519 86.5606 31.1704 86.739 30.7647C86.9143 30.3658 87.0961 29.9459 87.234 29.5701C87.3645 29.2145 87.4844 28.8258 87.4844 28.5156H86.4844C86.4844 28.6273 86.4284 28.8627 86.2953 29.2256C86.1695 29.5682 85.9997 29.9613 85.8235 30.3623C85.6503 30.7564 85.4692 31.1615 85.333 31.5055C85.2646 31.6781 85.2037 31.8448 85.1592 31.9945C85.1177 32.1344 85.0781 32.299 85.0781 32.4531H86.0781ZM87.4844 28.5156C87.4844 28.1852 87.4067 27.7679 87.0734 27.518L86.4734 28.318C86.445 28.2966 86.4481 28.2825 86.4594 28.3151C86.4712 28.349 86.4844 28.4134 86.4844 28.5156H87.4844ZM87.127 27.5644C87.0623 27.4997 86.9778 27.4314 86.8666 27.382C86.7533 27.3316 86.6384 27.3125 86.5273 27.3125V28.3125C86.5217 28.3125 86.4947 28.311 86.4605 28.2958C86.4285 28.2815 86.4142 28.2659 86.4199 28.2715L87.127 27.5644ZM86.5273 27.3125C86.4837 27.3125 86.4476 27.3177 86.4243 27.3219C86.3999 27.3263 86.379 27.3315 86.3639 27.3356C86.3359 27.3433 86.3089 27.3524 86.2989 27.3557C86.2825 27.3612 86.2832 27.3608 86.287 27.3598C86.29 27.359 86.2994 27.3565 86.3131 27.354C86.3256 27.3518 86.3519 27.3477 86.3867 27.3477V28.3477C86.4303 28.3477 86.4665 28.3425 86.4897 28.3383C86.5142 28.3339 86.5351 28.3287 86.5501 28.3245C86.5782 28.3169 86.6052 28.3077 86.6151 28.3044C86.6315 28.299 86.6309 28.2993 86.627 28.3004C86.6241 28.3012 86.6147 28.3037 86.601 28.3061C86.5885 28.3084 86.5622 28.3125 86.5273 28.3125V27.3125ZM86.2456 27.368C86.0289 27.4317 85.8609 27.5949 85.7533 27.7141C85.6291 27.8518 85.5041 28.0252 85.3831 28.2154C85.1399 28.5977 84.8834 29.094 84.6503 29.6238C84.1937 30.661 83.7773 31.9378 83.7773 32.8047H84.7773C84.7773 32.1599 85.1168 31.0461 85.5655 30.0266C85.785 29.528 86.0185 29.0796 86.2268 28.7522C86.3316 28.5875 86.4228 28.4648 86.4957 28.3841C86.5852 28.285 86.5951 28.3075 86.5278 28.3273L86.2456 27.368ZM83.7773 32.8047C83.7773 33.2215 83.8868 33.6223 84.133 33.93C84.388 34.2488 84.7614 34.4297 85.1914 34.4297V33.4297C85.0589 33.4297 84.9753 33.3821 84.9139 33.3053C84.8437 33.2176 84.7773 33.0559 84.7773 32.8047H83.7773Z" fill="#193A43"/>
</svg>
